<svg version="1.1" xmlns="http://www.w3.org/2000/svg" xmlns:xlink="http://www.w3.org/1999/xlink" width="700" height="700" viewBox="290,-70.5,700,700"><defs><linearGradient x1="496.26724" y1="480.96459" x2="686.62489" y2="3.45408" gradientUnits="userSpaceOnUse" id="color-1"><stop offset="0" stop-color="#fe92ff"/><stop offset="1" stop-color="#140b14"/></linearGradient></defs><g id="document" fill="#fcfcfc" fill-rule="nonzero" stroke="#000000" stroke-width="0" stroke-linecap="butt" stroke-linejoin="miter" stroke-miterlimit="10" stroke-dasharray="" stroke-dashoffset="0" font-family="none" font-weight="none" font-size="none" text-anchor="none" style="mix-blend-mode: normal"><rect x="290" y="-50.35714" transform="scale(1,1.4)" width="700" height="500" id="Shape 1 1" vector-effect="non-scaling-stroke"/></g><g fill="url(#color-1)" fill-rule="evenodd" stroke="none" stroke-width="1" stroke-linecap="butt" stroke-linejoin="miter" stroke-miterlimit="10" stroke-dasharray="" stroke-dashoffset="0" font-family="none" font-weight="none" font-size="none" text-anchor="none" style="mix-blend-mode: normal"><g><g id="stage"><g id="layer1 1"><path d="M513.67202,86.5513c-24.57799,1.07571 -44.6235,4.91031 -65.46224,12.52256c-19.82048,7.2405 -30.32095,13.09838 -42.92452,23.94964c-9.8882,8.51395 -17.95179,19.12238 -21.5429,28.34187c-3.56017,9.1396 -4.06367,19.49176 -4.08617,84.0804l-0.02157,59.16499l3.25169,1.14611c3.66049,1.29006 12.47418,1.40792 20.18896,0.26972c6.09363,-0.89933 4.48842,-0.84791 21.88513,-0.70238c7.65384,0.06407 14.15815,-0.08859 14.45538,-0.33853c0.29629,-0.25074 -3.35295,-0.4556 -8.11047,-0.4556c-5.40635,0 -8.4377,-0.29028 -8.08327,-0.77435c0.31223,-0.42633 0.14252,-1.4443 -0.37599,-2.26295c-1.95401,-3.08002 -3.84333,-22.66115 -3.713,-38.48837c0.10126,-12.32957 -0.23253,-17.30236 -1.51333,-22.54251c-1.34268,-5.4893 -1.53771,-8.97271 -1.06514,-18.98317c0.92544,-19.60407 2.04496,-33.59625 2.76787,-34.58179c0.36755,-0.50226 0.91887,-2.44883 1.2236,-4.32421c0.30567,-1.87617 0.93575,-3.53087 1.40175,-3.67799c0.79042,-0.24995 4.56811,-6.57292 4.56811,-7.64626c0,-1.03933 6.34492,-7.43112 6.90655,-6.95733c0.32723,0.27605 0.59445,0.16136 0.59445,-0.25469c0,-0.93492 5.73546,-6.73586 10.85115,-10.97543c18.30246,-15.16597 25.63376,-20.13718 29.73212,-20.16091c0.91981,-0.00554 3.71675,-0.88351 6.21459,-1.95131c2.49877,-1.0678 4.80533,-1.72035 5.126,-1.44984c0.32067,0.27051 0.5832,0.11469 0.5832,-0.34565c0,-0.46034 1.16078,-1.08125 2.57847,-1.37944c1.41769,-0.29819 3.84427,-1.02984 5.39135,-1.62702c7.55914,-2.91471 13.77842,-3.43358 46.8813,-3.90737c18.0493,-0.25865 35.13754,-0.61774 37.97386,-0.7965c14.26692,-0.90249 43.39146,-1.16035 49.69418,-0.43899c3.86771,0.44215 14.50414,1.30984 23.63662,1.92916c16.32595,1.10656 29.6318,3.4581 36.48959,6.44953c1.41675,0.61853 3.217,0.91594 4.00085,0.66283c0.84199,-0.27288 4.22213,1.17221 8.2633,3.53245c26.09132,15.23636 34.76905,35.64327 23.57004,55.42768c-2.66567,4.7102 -5.09787,7.39948 -11.48404,12.69895c-18.25277,15.14778 -44.1875,23.305 -75.85114,23.85788c-17.26826,0.30136 -17.27576,1.27108 -0.1022,13.60223c16.79195,12.05589 23.49691,16.301 29.67774,18.78938c6.93937,2.79448 18.54999,6.23676 21.03377,6.23676c0.94138,0 1.71117,0.32271 1.71117,0.71661c0,0.39469 0.94982,0.54181 2.10966,0.32746c1.57521,-0.29187 1.77774,-0.193 0.80073,0.38995c-0.95825,0.57108 0.62446,1.14215 5.90986,2.13402c6.3918,1.19989 8.92901,1.2521 22.17673,0.45639c8.22767,-0.49514 15.90589,-1.24656 17.06292,-1.67052c1.15703,-0.42475 7.77105,-1.83583 14.69916,-3.13618c6.92812,-1.29956 12.93361,-2.81267 13.34711,-3.3616c0.41256,-0.54814 0.75666,-0.65887 0.7651,-0.24599c0.0075,0.41288 0.52038,0.3243 1.13922,-0.19774c0.61883,-0.52204 1.70367,-0.94916 2.41064,-0.94916c0.70791,0 1.97464,-0.58057 2.81663,-1.29086c1.41488,-1.19357 1.37456,-1.24893 -0.53632,-0.73797c-3.7205,0.99662 -2.17248,-0.9191 2.38813,-2.95584c2.65723,-1.18566 4.40122,-2.4947 4.32433,-3.24296c-0.18471,-1.78837 7.27035,-7.9318 8.15735,-6.72162c0.46881,0.63989 0.82042,0.46113 1.09984,-0.55763c0.27191,-0.99741 0.65915,-0.47695 1.15703,1.55899c1.58178,6.4693 -3.04072,16.56598 -10.90928,23.82862c-16.66068,15.37716 -42.00377,22.44838 -77.17694,21.53245c-33.71891,-0.87718 -51.81228,-7.49519 -95.65943,-34.98677c-13.29929,-8.33915 -33.81173,-20.11978 -51.39691,-29.51882l-7.8995,-4.22296l1.9887,-1.79707c1.09327,-0.98871 2.88695,-2.03594 3.98585,-2.32702c1.0989,-0.29028 2.90383,-1.19119 4.01116,-2.00114c4.38715,-3.20974 20.98126,-6.49699 50.24832,-9.95351c6.18833,-0.73164 15.6818,-2.0573 21.09659,-2.94635c5.41479,-0.88984 11.25339,-1.7338 12.97487,-1.87617c9.54785,-0.79017 22.63429,-5.61823 23.93853,-8.83113c0.30567,-0.75379 1.78149,-3.17256 3.27888,-5.37382c2.02996,-2.98589 2.83257,-5.35879 3.15792,-9.33339c0.496,-6.0667 -0.12189,-5.98049 -2.38063,0.333c-1.53396,4.2902 -7.23941,11.02606 -9.33876,11.02606c-0.57195,0 0.07126,-0.97921 1.42894,-2.17515c5.30321,-4.67144 8.29143,-13.79681 6.4293,-19.63176c-3.65018,-11.43498 -22.75806,-22.78613 -44.646,-26.52265c-9.37251,-1.60012 -13.65184,-1.78837 -46.8813,-2.06284c-20.11208,-0.16689 -39.73191,-0.01582 -43.59961,0.33458c-4.40778,0.40023 6.78841,0.59797 30.00403,0.53074l37.03623,-0.10757l-34.69217,0.60034c-19.08069,0.32983 -37.03717,0.96735 -39.90349,1.41741c-14.0672,2.20679 -41.84531,10.2343 -50.57743,14.61546c-6.17989,3.10137 -15.00202,9.40774 -15.00108,10.7247c0.00094,1.75041 -6.75653,12.77883 -7.56946,12.35488c-0.34973,-0.18271 -0.91137,1.12238 -1.24892,2.90047c-0.33661,1.77809 -1.2086,4.20477 -1.9362,5.3928c-0.72854,1.18803 -2.19311,5.81597 -3.25544,10.28492c-1.8265,7.6866 -1.93057,10.80538 -1.93057,57.8425v49.7177l2.10966,0.97842c2.35813,1.09311 24.91741,1.32645 26.92768,0.27842c0.94325,-0.49198 1.1214,-10.72549 0.86449,-49.7525l-0.32348,-49.13318l3.49359,-8.77339c4.33465,-10.88605 9.36313,-17.16236 21.42569,-26.74174c12.42636,-9.86729 20.8453,-13.00742 35.82294,-13.36019c3.84333,-0.09017 6.83529,-0.38045 6.64871,-0.64464c-0.85043,-1.20464 59.01231,-3.52612 69.36933,-2.69086c13.9725,1.12713 24.62112,5.72026 27.94032,12.05115c3.53673,6.74377 -0.16408,11.8186 -11.46623,15.72913c-5.27133,1.82397 -8.04389,2.18465 -21.07221,2.74465c-8.25111,0.35435 -20.6981,0.6652 -27.65997,0.68972c-39.47312,0.14 -59.81679,9.35395 -67.31687,30.48775c-1.14578,3.22793 -1.48051,11.76482 -1.81899,46.46209l-0.41443,42.50726l2.48846,0.79808c3.57986,1.14848 20.15615,0.98554 22.9934,-0.22622l2.34407,-1.00057l-0.2841,-32.01036c-0.17534,-19.70294 0.06376,-32.44144 0.62071,-33.13195c0.7426,-0.9191 2.10403,-0.51017 7.5657,2.27323c6.37398,3.24929 11.70814,6.40761 50.55586,29.93803c33.45637,20.26453 50.4621,27.07474 81.71693,32.72381c8.58959,1.55266 12.65514,1.78284 31.87929,1.80815c17.84584,0.02294 23.54942,-0.2452 30.00403,-1.4095c11.88535,-2.14431 23.94134,-5.18636 32.2309,-8.1335c7.6801,-2.7312 23.08904,-10.48662 23.08904,-11.62165c0,-0.35831 -0.42193,-0.43187 -0.93763,-0.16294c-0.51569,0.26893 -0.93763,0.11153 -0.93763,-0.34882c0,-0.83051 1.24704,-1.14611 3.5311,-0.89379c0.65259,0.07198 1.07452,-0.31401 0.93763,-0.85899c-0.13689,-0.54498 0.38349,-1.0069 1.15703,-1.02667c0.77354,-0.01977 1.80493,-0.80046 2.29156,-1.73538c0.48569,-0.93413 2.0759,-2.29301 3.53204,-3.01911c1.45613,-0.72532 2.39845,-1.66024 2.09278,-2.07707c-0.30473,-0.41684 -0.01031,-0.65967 0.6554,-0.54023c0.66665,0.11944 1.87244,-0.85029 2.68067,-2.15538c0.80823,-1.30509 3.04541,-4.35347 4.97129,-6.77383c4.68438,-5.88874 8.01201,-16.74394 6.46962,-21.10453c-0.57758,-1.63334 -1.51052,-4.27279 -2.07309,-5.86659c-0.95169,-2.70036 -1.32112,-2.92657 -5.42979,-3.33313c-2.42376,-0.23966 -14.42538,-0.66599 -26.66984,-0.94758l-22.26206,-0.51255l-12.16476,5.21167c-18.61469,7.97688 -21.53352,8.66423 -37.07374,8.73384c-10.20794,0.04509 -14.36912,-0.26339 -18.7122,-1.38814c-8.83056,-2.28747 -18.32403,-6.66309 -18.32403,-8.44593c0,-0.31085 2.00464,-1.0243 4.45372,-1.58589c9.35563,-2.14272 26.28353,-8.5883 33.37574,-12.70844c15.31237,-8.8944 20.85749,-12.66494 23.55035,-16.01309c1.52833,-1.8999 4.05992,-4.17471 5.62576,-5.05506c1.80399,-1.01402 4.30464,-4.02601 6.82498,-8.22208c6.85123,-11.40572 8.02327,-24.35461 3.42515,-37.83108c-5.40635,-15.84303 -23.93759,-32.82901 -47.25167,-43.31405c-16.10654,-7.24287 -44.30283,-14.428 -64.6962,-16.48688c-11.89754,-1.20069 -103.06105,-1.41425 -128.49791,-0.30136M627.63672,87.8121c-2.06278,0.13051 -31.38703,0.33537 -65.16501,0.45481c-33.77798,0.11944 -58.46099,0.01266 -54.85113,-0.2365c3.60986,-0.24995 32.93412,-0.45481 65.16501,-0.4556c32.2309,-0.00079 56.9139,0.10599 54.85113,0.23729M641.94677,88.63154c-0.89637,0.19774 -2.5841,0.20486 -3.7505,0.01582c-1.16641,-0.18904 -0.43318,-0.35119 1.62959,-0.35989c2.06278,-0.0087 3.01728,0.14633 2.12091,0.34407M489.80569,90.86523c-24.5433,4.01336 -42.37226,10.04526 -63.67888,21.54431c-10.43953,5.63484 -26.15696,19.38735 -31.41047,27.48683c-1.1289,1.74012 -3.0726,4.5876 -4.31964,6.32772c-4.10493,5.72817 -5.50387,12.81364 -6.09082,30.84764l-0.54101,16.61027l-0.19034,-16.30496c-0.10408,-8.96717 0.23534,-18.1922 0.75385,-20.50024c1.74586,-7.76411 9.48315,-19.51153 19.11163,-29.01577c9.49253,-9.36898 13.4765,-12.3525 23.52504,-17.61559c19.57013,-10.25091 43.78808,-18.11548 63.181,-20.51843c10.76207,-1.33357 10.55579,-0.64385 -0.34036,1.1382M648.96771,89.40273c-0.64415,0.21989 -1.69898,0.21989 -2.34407,0c-0.64415,-0.2191 -0.1172,-0.39865 1.17203,-0.39865c1.28924,0 1.81712,0.17955 1.17203,0.39865M654.10497,90.14782c-0.31129,0.2626 -1.12046,0.29108 -1.79649,0.06249c-0.74823,-0.25232 -0.52601,-0.43978 0.56633,-0.47774c0.98826,-0.03401 1.54146,0.15266 1.23017,0.41526M774.39771,94.05835c-12.90549,3.03493 -21.42382,11.10752 -19.28978,18.28c0.95825,3.2216 7.94544,8.53214 13.2224,10.04842c9.57598,2.75256 27.89719,0.88351 34.53933,-3.52375c3.19262,-2.119 6.19771,-7.07202 6.19771,-10.21769c0,-10.03814 -19.36573,-18.18587 -34.66966,-14.58698M760.34082,103.85999c-0.53538,0.84396 -1.35206,2.89098 -1.81431,4.54805c-0.5382,1.92996 -0.87387,2.3642 -0.93481,1.20859c-0.09939,-1.91018 2.24186,-7.29112 3.17293,-7.29112c0.30285,0 0.11158,0.69051 -0.42381,1.53447M789.14281,105.48068c7.86762,4.04658 -0.79886,10.63295 -10.45359,7.94445c-1.86494,-0.51887 -3.83302,-1.64046 -4.37309,-2.49233c-3.31076,-5.21879 7.53008,-9.20525 14.82668,-5.45212M596.92947,114.74842c1.15984,0.18825 3.05947,0.18825 4.21932,0c1.15984,-0.18904 0.21097,-0.34328 -2.10966,-0.34328c-2.32062,0 -3.2695,0.15424 -2.10966,0.34328M622.732,115.5291c0.91231,0.20091 2.17811,0.18746 2.81288,-0.02927c0.63477,-0.21672 -0.11158,-0.38045 -1.65866,-0.36463c-1.54708,0.01582 -2.06653,0.193 -1.15422,0.3939M630.4496,116.50041c1.54708,0.36622 2.23343,0.7087 1.52646,0.76012c-2.21467,0.16057 0.74823,2.46623 3.16918,2.46623c1.16734,0 3.20106,0.47221 4.51936,1.04961c3.04541,1.33199 12.81922,1.73854 12.81922,0.53232c0,-0.47932 -1.46363,-1.38735 -3.25169,-2.01775c-3.77301,-1.32961 -6.44712,-1.55346 -4.24932,-0.35514c1.24986,0.68181 1.24986,0.75933 0,0.7c-0.77354,-0.03638 -2.46127,-0.35198 -3.7505,-0.7l-2.34407,-0.63356l2.34407,-0.12893c2.29343,-0.12576 2.3,-0.14396 0.29817,-0.82419c-1.12515,-0.38283 -4.71157,-0.87955 -7.96982,-1.10498c-4.07961,-0.28158 -5.04818,-0.20249 -3.11104,0.25627M904.77086,156.57229c0.03657,21.28092 0.38818,39.38611 0.78198,40.23482c0.39287,0.84791 0.52976,-16.4149 0.30285,-38.36181c-0.22691,-21.9477 -0.57852,-40.0529 -0.78104,-40.23482c-0.20346,-0.18113 -0.33942,17.08169 -0.30379,38.36181M653.42144,120.76371c0,0.23017 2.21467,1.02984 4.92254,1.7773c2.70786,0.74746 6.96844,2.22419 9.46909,3.28092c2.50159,1.05594 4.71907,1.77572 4.9291,1.59933c0.20909,-0.17718 -2.89164,-1.60566 -6.89155,-3.17493c-7.19909,-2.82454 -12.42917,-4.2894 -12.42917,-3.48262M442.45557,127.16737c0,0.17718 -2.21561,1.8121 -4.92254,3.6329l-4.92254,3.31177l4.66281,-3.6329c4.58218,-3.57121 5.18226,-3.95483 5.18226,-3.31177M516.99684,130.16908c-7.43069,1.55899 -27.2221,6.97157 -28.5976,7.82186c-1.14203,0.70475 -1.05389,0.76565 0.46881,0.3235c5.57325,-1.6199 22.49084,-5.97416 28.5976,-7.35993c7.02751,-1.59538 6.62245,-2.27323 -0.46881,-0.78543M608.18098,129.78467c-1.41863,0.18113 -3.73832,0.18113 -5.15694,0c-1.41863,-0.18113 -0.25785,-0.32904 2.57847,-0.32904c2.83632,0 3.9971,0.14791 2.57847,0.32904M621.07334,130.84061c1.84994,0.42396 0.88606,0.49277 -2.81288,0.20328c-3.09417,-0.24283 -5.80109,-0.57503 -6.01675,-0.73797c-0.69759,-0.52916 5.93705,-0.12735 8.82962,0.53469M684.51968,135.22809c1.89025,1.69741 4.51467,4.15415 5.83016,5.45924c1.31549,1.30509 2.40595,1.9782 2.42189,1.49572c0.04126,-1.20306 -7.19628,-8.04253 -9.6763,-9.14514c-1.32393,-0.58927 -0.83542,0.16215 1.42425,2.19018M432.14168,134.23701c0,0.15028 -0.94888,0.95074 -2.10966,1.77967l-2.10966,1.50679l1.78618,-1.77967c1.67835,-1.6721 2.43314,-2.13956 2.43314,-1.50679M484.18649,139.49219c-0.32817,0.44769 0.04782,0.58057 0.88231,0.31085c1.62397,-0.52599 1.9212,-1.09311 0.57289,-1.09311c-0.48569,0 -1.14015,0.35198 -1.4552,0.78226M421.00643,146.0398c-0.92637,0.77515 -1.03326,0.68418 -0.52507,-0.44294c0.35255,-0.77989 0.87668,-1.21888 1.16547,-0.97526c0.28879,0.24283 0.00094,0.88114 -0.6404,1.4182M698.64033,162.0434c0.00656,6.28501 0.09751,6.66942 0.77073,3.28409c0.41912,-2.10871 0.41631,-5.31212 -0.0075,-7.11869c-0.63196,-2.69482 -0.76885,-2.00668 -0.76323,3.8346M463.12647,161.45017c-7.02094,7.67948 -10.83333,14.19783 -13.54401,23.16342c-2.33938,7.73406 -3.21606,6.97394 -1.41863,-1.22995c1.45332,-6.62987 7.90044,-16.96541 13.92937,-22.32895c2.78287,-2.47572 3.43171,-2.22736 1.03326,0.39548M640.25154,168.04366c-0.5757,0.90724 -1.28361,1.44984 -1.57334,1.20543c-0.28879,-0.24441 0.0075,-0.98712 0.66009,-1.64995c1.68585,-1.71323 2.14154,-1.49176 0.91325,0.44452M731.77322,171.31825c-0.81573,5.18715 -6.05894,13.70664 -11.69689,19.0061c-11.99505,11.27284 -35.55759,21.99121 -54.14603,24.63066c-16.3597,2.32306 -37.82477,3.93426 -37.82477,2.83957c0,-0.43582 2.79225,-0.77515 6.32898,-0.76961c9.29375,0.01424 27.48838,-2.14826 38.18201,-4.53856c5.4673,-1.22204 13.39305,-3.82273 19.08632,-6.26286c23.26063,-9.97012 34.85719,-20.92894 39.01087,-36.86373c0.98076,-3.76341 1.7393,-2.36182 1.05952,1.95843M637.48179,169.85655c0,0.16373 -0.73885,0.78701 -1.64085,1.38419c-1.48707,0.98317 -1.51989,0.95549 -0.35442,-0.29898c1.22548,-1.31775 1.99527,-1.73617 1.99527,-1.0852M629.17818,174.00912c-1.73086,0.63673 -4.47341,1.32961 -6.09457,1.53922c-1.73742,0.22384 -0.8298,-0.2452 2.20905,-1.14215c6.11895,-1.80656 8.32612,-2.03199 3.88552,-0.39706M615.44758,176.71264c-2.57847,0.33853 -12.9158,0.56949 -22.97184,0.51255l-18.28371,-0.10362l19.22133,-0.44531c29.31957,-0.67865 27.50151,-0.68181 22.03421,0.03638M568.09746,177.97976c-17.86834,1.41108 -25.96193,3.06974 -34.81593,7.13451c-5.85923,2.69086 -13.19896,9.35237 -16.02122,14.5419c-1.17016,2.15222 -2.43595,3.91291 -2.81288,3.91291c-0.83824,0 0.29817,-2.60148 3.36889,-7.7127c6.59151,-10.97385 25.45561,-18.26497 46.99945,-18.1661c3.60986,0.01661 5.08662,0.14712 3.28169,0.28949M692.29448,179.10214c-0.34036,0.46351 -0.41724,1.01323 -0.17159,1.22046c0.24566,0.20723 0.69666,-0.17243 1.00232,-0.84396c0.63384,-1.39368 0.09376,-1.63888 -0.83074,-0.3765M774.58336,188.12152c-11.09868,2.92341 -16.24156,11.34481 -11.02836,18.05695c0.83167,1.07097 4.13399,3.13934 7.33786,4.59709c5.31353,2.41719 6.52869,2.64973 13.79623,2.64182c6.77435,-0.00791 8.85682,-0.35119 13.88062,-2.28747c7.44756,-2.8712 9.56004,-5.04873 9.56004,-9.85701c0,-6.90829 -6.25772,-11.67386 -17.74082,-13.51127c-6.51744,-1.04249 -10.85677,-0.94362 -15.80556,0.35989M446.86804,197.43909c-0.22409,0.97921 -0.40693,0.17797 -0.40693,-1.77967c0,-1.95764 0.18284,-2.75889 0.40693,-1.77967c0.22316,0.97921 0.22316,2.58013 0,3.55934M384.0349,200.98341c-0.23816,0.76961 -0.44819,0.33141 -0.46694,-0.97368c-0.01875,-1.30509 0.17534,-1.9347 0.43225,-1.39922c0.25691,0.53548 0.27285,1.60329 0.03469,2.3729M905.09622,217.41096c0.00094,8.26559 0.13971,11.53939 0.30848,7.2753c0.16877,-4.26409 0.16784,-11.02685 -0.00188,-15.02834c-0.16971,-4.00149 -0.30754,-0.51255 -0.3066,7.75304M511.8399,213.45614c-0.63852,6.17507 -0.65728,6.21382 -0.78292,1.58193c-0.11158,-4.11381 0.60102,-8.82954 1.23017,-8.13903c0.11439,0.12655 -0.08626,3.07685 -0.44725,6.5571M446.90179,227.89125c-0.18096,2.93606 -0.32817,0.5339 -0.32817,-5.33902c0,-5.87292 0.14721,-8.27508 0.32817,-5.33902c0.18002,2.93606 0.18002,7.74197 0,10.67803M410.33437,234.97672c-0.18002,2.95505 -0.33004,0.74509 -0.33098,-4.91031c-0.00188,-5.6554 0.14627,-8.07259 0.32817,-5.37224c0.18284,2.70115 0.18377,7.32829 0.00281,10.28255M510.66599,267.49093c-0.15283,7.69372 -0.27847,1.17458 -0.27847,-14.48653c0.00094,-15.66111 0.12658,-21.95561 0.27941,-13.98822c0.15283,7.96739 0.15283,20.78103 -0.00094,28.47475M758.43556,228.87996c-0.77354,0.42158 -1.82837,0.76645 -2.34407,0.76645c-0.51569,0 -0.30473,-0.34486 0.46881,-0.76645c0.77354,-0.42158 1.82837,-0.76645 2.34407,-0.76645c0.51569,0 0.30473,0.34486 -0.46881,0.76645M751.87218,231.5637c0,0.17085 -0.65446,0.52283 -1.4552,0.78226c-0.83449,0.26972 -1.21048,0.13684 -0.88231,-0.31085c0.55039,-0.75221 2.3375,-1.1121 2.3375,-0.47142M905.09903,248.25861c-0.00094,8.70062 0.13596,12.36753 0.30473,8.14931c0.16784,-4.21822 0.16877,-11.3369 0.00094,-15.8193c-0.1669,-4.4824 -0.30473,-1.03063 -0.30567,7.66999M741.55829,235.99865c-0.77354,0.42158 -1.82837,0.76645 -2.34407,0.76645c-0.51569,0 -0.30473,-0.34486 0.46881,-0.76645c0.77354,-0.42158 1.82837,-0.76645 2.34407,-0.76645c0.51569,0 0.30473,0.34486 -0.46881,0.76645M731.2444,238.87618c-2.32062,0.62565 -7.80574,1.28374 -12.18914,1.46091l-7.96982,0.32271l7.53945,-0.68339c4.14618,-0.37571 8.9984,-1.03616 10.7827,-1.46803c5.03505,-1.21888 6.5737,-0.91119 1.83681,0.3678M791.8985,243.71056c-0.23534,0.76091 -0.4285,0.13842 -0.4285,-1.38419c0,-1.52261 0.19315,-2.1451 0.4285,-1.38419c0.23628,0.76091 0.23628,2.00747 0,2.76838M770.64908,244.27847c-1.30518,1.32724 -9.51034,5.33743 -10.02791,4.90161c-0.27566,-0.23254 9.56097,-5.66489 10.82114,-5.97653c0.19221,-0.04746 -0.16408,0.43661 -0.79323,1.07492M790.95525,248.01183c-0.2991,0.6304 -0.52132,0.44294 -0.56633,-0.47853c-0.04032,-0.83368 0.18096,-1.30035 0.49225,-1.03775c0.31129,0.2626 0.34505,0.9452 0.07407,1.51628M753.27862,251.81795c-1.03139,0.37413 -2.71912,0.66916 -3.7505,0.6565c-1.5077,-0.01898 -1.41582,-0.14712 0.46881,-0.6565c3.20574,-0.86611 5.67076,-0.86611 3.28169,0M788.52398,253.267c-0.50632,0.79729 -1.68116,1.94815 -2.61129,2.55719c-1.62022,1.06068 -1.62303,1.03854 -0.05157,-0.52283c0.902,-0.89695 1.64085,-2.04781 1.64085,-2.55719c0,-0.50938 0.43693,-0.92622 0.97044,-0.92622c0.65071,0 0.66759,0.47774 0.05157,1.44905M743.50105,253.86418c-2.28406,0.6043 -4.33465,0.9452 -4.55686,0.75774c-0.47913,-0.40418 5.2779,-1.87301 7.30223,-1.86351c0.77354,0.00395 -0.46225,0.50147 -2.74537,1.10577M446.90554,280.09496c-0.16596,4.67698 -0.30098,0.85029 -0.30098,-8.50288c0,-9.35316 0.13502,-13.17985 0.30098,-8.50288c0.16596,4.67698 0.16596,12.32878 0,17.00575M411.35545,272.18531l-0.15846,15.62156l-0.90106,-14.38766c-0.82417,-13.14901 -0.66571,-16.85547 0.7201,-16.85547c0.27379,0 0.42662,7.02931 0.33942,15.62156M778.86643,262.4857c-5.49355,4.43415 -11.99224,8.32412 -11.99224,7.1788c0,-0.21277 2.42564,-1.79075 5.39135,-3.50714c2.96571,-1.71639 6.79685,-4.39935 8.51458,-5.9623c1.71773,-1.56216 3.40546,-2.82849 3.7505,-2.81425c0.34505,0.01503 -2.20436,2.31199 -5.6642,5.10489M905.11966,287.41139c0,12.83341 0.12939,18.08384 0.28691,11.66674c0.15752,-6.4171 0.15752,-16.91716 0,-23.33347c-0.15752,-6.4171 -0.28691,-1.16667 -0.28691,11.66674M765.93657,270.44439c0,0.23887 -3.05947,1.64916 -6.79779,3.13301c-8.04108,3.19154 -22.20299,6.75168 -26.35854,6.62671c-2.28499,-0.06881 -1.894,-0.25232 1.74586,-0.82339c7.25535,-1.13741 19.14914,-4.44997 24.84709,-6.92015c5.48511,-2.37764 6.56338,-2.70906 6.56338,-2.01617M728.19712,280.83767c-0.902,0.19932 -2.3797,0.19932 -3.28169,0c-0.902,-0.19853 -0.16408,-0.36147 1.64085,-0.36147c1.80493,0 2.54284,0.16294 1.64085,0.36147M720.69611,281.65c-1.41863,0.18113 -3.73832,0.18113 -5.15694,0c-1.41863,-0.18113 -0.25785,-0.32904 2.57847,-0.32904c2.83632,0 3.9971,0.14791 2.57847,0.32904M709.46897,282.44966c-1.92026,0.17006 -5.29571,0.17243 -7.50101,0.00475c-2.2053,-0.16689 -0.63384,-0.3061 3.49172,-0.30848c4.12555,-0.00316 5.92955,0.13367 4.00929,0.30373M904.49708,350.38171l-0.26066,37.87774l-2.64317,4.35031c-3.39983,5.59529 -6.94968,8.69113 -15.64054,13.64257c-15.08734,8.597 -28.81888,12.86821 -47.35012,14.73094c-5.75796,0.5782 -82.80082,0.88984 -242.53293,0.9808c-128.752,0.07277 -234.60342,0.39786 -235.22507,0.72215c-0.62165,0.3243 2.29625,0.84554 6.48556,1.15797c4.18931,0.31322 7.61634,0.87085 7.61634,1.24023c0,1.08441 6.60089,2.31832 12.42355,2.32306c2.96571,0.00237 5.39135,0.30927 5.39135,0.68181c0,0.67628 11.83097,1.91967 17.58049,1.8469c1.67648,-0.02136 3.04728,0.25785 3.04728,0.62012c0,0.66916 12.00911,1.49888 28.12878,1.94261c9.85445,0.2713 11.38372,0.48328 13.33586,1.85007c1.03045,0.72136 1.61459,0.71345 2.55597,-0.0348c0.96388,-0.76645 1.30986,-0.76249 1.64928,0.01898c0.54289,1.24735 33.58952,1.43718 34.49714,0.19774c0.87199,-1.1904 17.09855,-1.02193 17.57393,0.18192c0.34692,0.87718 15.11266,1.12317 37.74601,0.62882c9.62004,-0.20961 14.85669,0.0704 16.67943,0.89379c1.48145,0.66837 2.07403,0.66599 2.34125,-0.00949c0.44256,-1.12001 3.62955,-1.19278 4.42935,-0.10045c0.32442,0.44215 1.00045,0.59006 1.50301,0.32746c0.50257,-0.26181 1.60897,-0.00079 2.45939,0.58057c1.29392,0.88509 1.4205,0.88193 0.77917,-0.01661c-0.60102,-0.84159 -0.2841,-0.93888 1.46082,-0.45006c2.8457,0.7965 34.84406,0.44531 35.49384,-0.38915c0.81855,-1.05277 7.31817,-1.77018 7.97076,-0.88034c0.82699,1.1295 4.23713,1.02746 4.23713,-0.12655c0,-0.51808 0.61977,-0.25153 1.37644,0.59322c1.20766,1.34622 1.38019,1.37074 1.40644,0.19458c0.02625,-1.18882 1.06608,-1.30588 9.17186,-1.02984c10.8999,0.37017 17.91616,1.09944 20.15896,2.09368c1.22454,0.54339 1.64085,0.42 1.64085,-0.48644c0,-1.05989 3.03791,-1.21413 23.90947,-1.21413c13.15021,0 23.90947,0.26656 23.90853,0.59322c0,0.32667 11.49717,0.49831 25.55031,0.38283c17.28514,-0.14316 25.0965,0.04509 24.14481,0.58057c-0.8673,0.48882 -0.97513,0.7965 -0.28129,0.80441c0.61883,0.00633 1.58834,-0.61142 2.15466,-1.37232c0.87012,-1.17063 0.93481,-1.0947 0.41537,0.49435c-0.466,1.42374 -0.31786,1.7243 0.60852,1.24102c0.67228,-0.3504 3.24887,-0.54656 5.72608,-0.43582c2.73318,0.1226 4.50342,-0.13209 4.50342,-0.6478c0,-1.01797 2.52315,-1.1469 2.96946,-0.15187c0.39193,0.87402 31.8174,2.81584 34.92563,2.15854c1.45707,-0.30927 2.811,-0.04271 3.72988,0.73243c1.24048,1.04645 7.29942,1.27345 43.19831,1.62148c36.69493,0.35514 41.75624,0.26023 41.75624,-0.78147c0,-0.86294 1.53489,-1.33278 5.62576,-1.72351c3.09417,-0.29503 5.62576,-0.84633 5.62576,-1.22521c0,-0.37887 0.58789,-0.68893 1.30611,-0.68893c0.71822,0 1.54896,-0.5339 1.84619,-1.18645c0.29629,-0.65255 1.16734,-1.18645 1.93526,-1.18645c1.96995,0 6.16395,-6.37043 6.16395,-9.36345c0,-1.37549 0.38068,-2.50103 0.84574,-2.50103c1.17953,0 2.31406,-8.66028 2.12279,-16.21479c-0.13877,-5.4893 -0.43975,-6.52863 -2.26718,-7.84321c-1.48801,-1.06938 -1.62491,-1.36046 -0.46694,-0.98871c3.9821,1.2782 4.7397,1.32882 2.34407,0.15661c-2.49221,-1.22046 -2.79788,-1.94973 -2.9704,-7.08309c-0.06188,-1.86668 -0.79886,-2.62838 -3.82739,-3.95799c-3.65768,-1.60487 -3.75801,-1.76069 -4.03461,-6.27394c-0.28223,-4.59788 -0.30192,-4.62715 -2.9629,-4.29731l-2.6788,0.33141l-0.08251,-31.62121c-0.04501,-17.39174 -0.28223,-31.78968 -0.52695,-31.99613c-0.24378,-0.20644 -0.56164,16.67038 -0.70509,37.50362M322.38598,325.33817c-0.05532,0.45243 -0.03563,44.96637 0.02063,48.09069c0.03188,1.73538 0.28879,1.77967 10.24638,1.77967c11.86097,0 11.35184,0.37492 11.35184,-8.36999v-5.86738h5.41104h5.41104l8.39925,7.11869l8.39925,7.11869l13.14646,-0.02689l13.14646,-0.0261l-3.7505,-2.54454c-7.3763,-5.00286 -18.60719,-13.64494 -18.9888,-14.6115c-0.25222,-0.63752 0.59727,-0.98317 2.41814,-0.98317c1.86588,0 4.42184,-1.07729 7.62384,-3.21211c3.90428,-2.60386 4.70876,-3.54036 4.24182,-4.94353c-0.37974,-1.14294 -0.28879,-1.38577 0.26629,-0.71345c0.60852,0.7356 1.30236,0.15424 2.50815,-2.10001c1.40175,-2.62363 1.49083,-3.56567 0.5607,-5.94252c-2.27562,-5.81834 -13.69684,-12.15239 -24.97367,-13.85138c-5.79453,-0.87323 -45.34547,-1.66894 -45.4383,-0.91515M425.20419,328.45457c-0.74916,4.61766 -0.72385,38.42588 0.03282,43.08388l0.59633,3.67008h30.34533h30.34533v-3.06499c0,-1.68555 -0.26347,-4.17709 -0.58602,-5.53676l-0.58602,-2.47177h-19.10413h-19.10413v-3.83302v-3.83381l11.39872,-0.5165c6.26897,-0.28475 13.86374,-0.51729 16.87727,-0.51729h5.47855v-4.7276v-4.7276l-16.64286,-0.21593l-16.64286,-0.21593l-0.28129,-4.54805l-0.28129,-4.54805h19.26822h19.26822l-0.00188,-5.7345l-0.00094,-5.7345h-29.90746h-29.90746l-0.56445,3.47234M546.53206,325.08111c-8.71523,1.42453 -20.72716,6.24467 -26.83205,10.76662c-6.7631,5.00918 -8.60366,12.15081 -5.44573,21.12273c2.82038,8.01169 13.2299,14.85195 26.57514,17.4653c6.10113,1.19436 23.27751,1.25763 29.11235,0.10757c2.30375,-0.45401 4.62437,-0.54023 5.15694,-0.19062c1.21891,0.79887 13.46525,-0.27367 14.66353,-1.28453c0.50632,-0.42712 0.77729,-5.97337 0.62915,-12.8872l-0.25972,-12.13657l-17.50079,-0.34091l-17.50173,-0.34091l-0.66103,4.46737c-0.3638,2.45753 -0.42381,4.66907 -0.13221,4.91427c0.29066,0.24599 4.24463,0.49673 8.78649,0.55684l8.25674,0.11074v2.76521c0,2.52002 -0.33192,2.85934 -3.7505,3.83223c-5.55543,1.58114 -18.38966,0.7 -23.76038,-1.63097c-6.29616,-2.73358 -8.02514,-5.18794 -8.43113,-11.97442c-0.34223,-5.7171 -0.33004,-5.75111 2.95446,-8.18333c1.81431,-1.34385 5.7589,-3.22793 8.7668,-4.18658c6.44149,-2.05414 13.25991,-1.8295 22.45333,0.73797l5.73358,1.6017l7.25816,-3.48895l7.2591,-3.48974l-5.52262,-2.35154c-9.5666,-4.07347 -16.92509,-5.75348 -26.55638,-6.06117c-4.8991,-0.15661 -9.96228,-0.11232 -11.25151,0.09887M623.4174,349.69911l0.46881,25.11394l11.25151,-0.28949c6.18833,-0.15898 11.29371,-0.33695 11.34434,-0.39548c0.05157,-0.05853 -0.10783,-11.22854 -0.35536,-24.82365l-0.44819,-24.71766l-11.36497,-0.00079h-11.36497l0.46881,25.11315M679.57089,330.32125c-0.0572,3.15437 -0.16315,14.45489 -0.23441,25.11315l-0.12939,19.37865l2.10966,-0.05616c1.15984,-0.03164 6.59807,-0.12023 12.08506,-0.19774l9.9754,-0.14158l-0.67322,-11.93883c-0.56351,-9.98198 -0.46412,-11.82889 0.60477,-11.27125c6.4068,3.34499 17.1323,10.11565 26.06038,16.45129l10.7827,7.6518l8.43863,-0.51808c4.64125,-0.28554 8.43863,-0.57503 8.43863,-0.64464c0,-0.06881 -0.13314,-11.24832 -0.29535,-24.84343l-0.29535,-24.71766h-10.70019h-10.70019l-0.25597,13.76042l-0.25597,13.76121l-15.00202,-9.84752c-29.1883,-19.15876 -26.32104,-17.64881 -33.52013,-17.66225l-6.32898,-0.01186l-0.10408,5.7345M789.08468,333.14816c-0.30473,4.54489 -0.13596,15.39614 0.37599,24.11337c0.51101,8.71723 0.71447,16.32157 0.45287,16.89818c-0.39099,0.8582 5.15319,1.04882 30.47754,1.04882h30.95479l-0.2766,-5.33902l-0.27754,-5.33902l-20.39337,-0.21356l-20.39337,-0.21277v-3.9398v-3.93901h17.90678h17.90678l-0.66571,-4.94353c-0.36661,-2.71855 -0.73135,-5.00839 -0.81105,-5.08828c-0.07876,-0.07989 -7.73166,-0.25785 -17.00572,-0.39548l-16.86227,-0.25074l-0.27847,-4.02918l-0.27847,-4.02918l11.44279,-0.51887c6.29335,-0.28554 15.59553,-0.51887 20.67184,-0.51887h9.22905l-0.00094,-5.7345l-0.00094,-5.7345l-30.80946,-0.04904l-30.80946,-0.04904l-0.55507,8.264M366.16375,338.53147c6.524,2.61177 6.56057,7.33462 0.07689,9.81825c-3.01259,1.15323 -6.12551,1.51707 -13.09395,1.53052l-9.14185,0.0174v-6.32772v-6.32772h9.46909c6.81092,0 10.37296,0.36226 12.68983,1.28927" id="CompoundPath 1"/></g></g></g></g></svg>